<svg width="23" height="17" viewBox="0 0 23 17" fill="none" xmlns="http://www.w3.org/2000/svg">
<path d="M14.3406 0.229305L13.5612 0.0188093C13.4609 -0.0141483 13.362 -0.00378386 13.2659 0.0498156C13.1695 0.103458 13.1044 0.183988 13.071 0.291274L8.38289 16.2752C8.34943 16.3825 8.35991 16.4837 8.41437 16.5785C8.46882 16.6735 8.55039 16.7375 8.65948 16.7704L9.43871 16.981C9.53926 17.0142 9.63773 17.0038 9.7341 16.9501C9.8305 16.8962 9.89548 16.816 9.92889 16.7089L14.6171 0.724666C14.6505 0.61738 14.6401 0.516166 14.5856 0.421152C14.5311 0.326182 14.4496 0.262219 14.3406 0.229305Z" fill="#959595"/>
<path d="M7.31498 3.34953C7.31498 3.24225 7.27302 3.14724 7.18925 3.06475L6.56075 2.44567C6.47698 2.36315 6.38057 2.32178 6.27166 2.32178C6.16275 2.32178 6.0663 2.36319 5.98257 2.44567L0.125726 8.21516C0.0418207 8.29769 0 8.39266 0 8.49994C0 8.60723 0.0419528 8.7022 0.125726 8.78468L5.98252 14.5542C6.06625 14.6368 6.16253 14.6779 6.27161 14.6779C6.3807 14.6779 6.47698 14.6367 6.56071 14.5542L7.18921 13.9354C7.27298 13.853 7.31493 13.7579 7.31493 13.6505C7.31493 13.5434 7.27298 13.4484 7.18921 13.3659L2.24982 8.49994L7.18925 3.63431C7.27316 3.55183 7.31498 3.45682 7.31498 3.34953Z" fill="#959595"/>
<path d="M22.8744 8.21501L17.0174 2.44552C16.9337 2.36304 16.8372 2.32162 16.7285 2.32162C16.6194 2.32162 16.5233 2.36304 16.4393 2.44552L15.811 3.06456C15.7273 3.14708 15.6855 3.24192 15.6855 3.34934C15.6855 3.45675 15.7273 3.55164 15.811 3.63412L20.7506 8.49988L15.811 13.3659C15.7273 13.4484 15.6855 13.5434 15.6855 13.6505C15.6855 13.758 15.7273 13.8529 15.811 13.9354L16.4393 14.5541C16.5233 14.6368 16.6195 14.6779 16.7285 14.6779C16.8373 14.6779 16.9337 14.6367 17.0174 14.5541L22.8744 8.7847C22.9582 8.70222 23 8.60708 23 8.49979C23 8.39246 22.9582 8.29749 22.8744 8.21501Z" fill="#959595"/>
</svg>
