<svg width="15" height="15" viewBox="0 0 15 15" fill="none" xmlns="http://www.w3.org/2000/svg">
<path d="M12.8033 2.1924C11.3962 0.788086 9.52854 0.010459 7.54024 0.000117188C7.53663 2.92969e-05 7.53296 0 7.52929 0C7.52739 0 7.52548 0 7.5236 2.92969e-05C7.51573 0 7.5079 0 7.5 0C5.49667 0 3.61328 0.778623 2.19668 2.1924C0.780144 3.60624 3.77922e-10 5.48596 3.77922e-10 7.48538C3.77922e-10 9.48481 0.780144 11.3645 2.19668 12.7784C3.57568 14.1547 5.39713 14.929 7.3409 14.9691C7.40005 14.9892 7.4634 15 7.52929 15C7.59696 15 7.66195 14.9885 7.72242 14.9675C9.0162 14.9294 10.2765 14.5595 11.3807 13.892C11.6575 13.7247 11.746 13.3651 11.5783 13.0889C11.4106 12.8126 11.0503 12.7243 10.7736 12.8917C10.1682 13.2576 9.50703 13.5174 8.81841 13.6633L13.6874 8.80383C13.5201 9.57738 13.2058 10.3179 12.7551 10.9908C12.5752 11.2593 12.6475 11.6225 12.9165 11.802C13.1856 11.9815 13.5495 11.9093 13.7293 11.6408C14.5606 10.3999 15 8.96291 15 7.48541C15 5.48596 14.2199 3.60624 12.8033 2.1924ZM6.94336 13.777C3.71373 13.4947 1.17187 10.7807 1.17187 7.48538C1.17187 4.19004 3.71373 1.47604 6.94336 1.19379V13.777ZM8.11523 1.19921C8.5546 1.24172 8.98094 1.32923 9.38961 1.45714L8.11523 2.72886V1.19921ZM8.11523 4.38284L10.5502 1.9529C10.9029 2.14734 11.2351 2.37439 11.5427 2.62998L8.11523 6.05077V4.38284ZM8.11523 7.68334C8.15254 7.66017 8.1878 7.63239 8.2202 7.60008L12.3708 3.45762C12.6308 3.77033 12.8613 4.10842 13.0578 4.46754L8.11523 9.40043V7.68334ZM8.11523 12.711V11.0545L13.5497 5.6306C13.6873 6.07676 13.7766 6.54387 13.8115 7.02577L8.11523 12.711Z" fill="#C5C5C5"/>
</svg>
