<svg width="23" height="23" viewBox="0 0 23 23" fill="none" xmlns="http://www.w3.org/2000/svg">
<path d="M11.5 1.15C17.2071 1.15 21.85 5.79293 21.85 11.5C21.85 17.2071 17.2071 21.85 11.5 21.85C5.79293 21.85 1.15 17.2071 1.15 11.5C1.15 5.79293 5.79293 1.15 11.5 1.15ZM11.5 0C5.14932 0 0 5.14893 0 11.5C0 17.8511 5.14932 23 11.5 23C17.8507 23 23 17.8511 23 11.5C23 5.14893 17.8507 0 11.5 0Z" fill="#C5C5C5"/>
<path d="M13.9917 5.96582C12.9375 5.96582 12.075 6.82832 12.075 7.88249V9.07734L9.01293 7.06215C7.95646 6.36717 7.09166 6.83292 7.09166 8.09792V14.5667C7.09166 15.8317 7.95761 16.2997 9.01638 15.607L12.075 13.6053V15.1175C12.075 16.1717 12.9375 17.0342 13.9917 17.0342C15.0458 17.0342 15.9083 16.1717 15.9083 15.1175V7.88249C15.9083 6.82832 15.0458 5.96582 13.9917 5.96582ZM14.7583 10.0759C14.7583 10.4976 14.7583 11.0691 14.7583 11.3459C14.7583 11.6227 14.7583 12.1942 14.7583 12.6159V15.1179C14.7583 15.5396 14.4133 15.8846 13.9917 15.8846C13.57 15.8846 13.225 15.5396 13.225 15.1179V13.6195C13.225 13.1978 13.225 12.5434 13.225 12.1659C13.225 11.7879 12.9363 11.6675 12.5833 11.8983L8.88336 14.3202C8.53031 14.551 8.24166 14.3946 8.24166 13.9733V8.69784C8.24166 8.27617 8.52993 8.12092 8.88221 8.35284L12.5844 10.7885C12.9367 11.0201 13.225 10.9005 13.225 10.5221C13.225 10.1434 13.225 9.48865 13.225 9.06699V7.8821C13.225 7.46044 13.57 7.11544 13.9917 7.11544C14.4133 7.11544 14.7583 7.46044 14.7583 7.8821V10.0759Z" fill="#C5C5C5"/>
</svg>
