<svg width="26" height="26" viewBox="0 0 26 26" fill="none" xmlns="http://www.w3.org/2000/svg">
<path d="M13 24.7C6.54853 24.7 1.3 19.4515 1.3 13C1.3 6.54853 6.54853 1.3 13 1.3C19.4515 1.3 24.7 6.54853 24.7 13C24.7 19.4515 19.4515 24.7 13 24.7ZM13 26C20.179 26 26 20.1795 26 13C26 5.82053 20.179 -1.49012e-08 13 -1.49012e-08C5.82097 -1.49012e-08 -1.49012e-08 5.82053 -1.49012e-08 13C-1.49012e-08 20.1795 5.82097 26 13 26Z" fill="#C5C5C5"/>
<path d="M6.07187 14.4122L11.2615 17.8273C12.4557 18.613 13.4333 18.086 13.4333 16.656V15.5489L16.8948 17.8269C18.0891 18.613 19.0667 18.086 19.0667 16.656V9.34353C19.0667 7.91353 18.0878 7.38443 16.8909 8.16746L13.4333 10.4303V9.34353C13.4333 7.91353 12.4544 7.38443 11.2576 8.16746L6.07533 11.5587C4.8789 12.3422 4.8776 13.6262 6.07187 14.4122ZM6.99486 12.5112L11.4084 9.62303C11.807 9.36173 12.1333 9.53853 12.1333 10.0148V11.9682C12.1333 12.4449 12.4596 12.6213 12.8587 12.3604L17.0413 9.6226C17.4404 9.36173 17.7667 9.53853 17.7667 10.0148V15.9779C17.7667 16.4545 17.4408 16.63 17.0426 16.3679L12.8574 13.6145C12.4592 13.3527 12.1333 13.5282 12.1333 14.0045V15.9779C12.1333 16.4545 11.8075 16.63 11.4092 16.3679L6.99357 13.4624C6.59533 13.2006 6.59576 12.7725 6.99486 12.5112Z" fill="#C5C5C5"/>
</svg>
