<svg width="27" height="27" viewBox="0 0 27 27" fill="none" xmlns="http://www.w3.org/2000/svg">
<path d="M13.0907 1.34777C19.5422 1.37148 24.7714 6.6393 24.7477 13.0908C24.724 19.5422 19.4562 24.7715 13.0047 24.7478C6.55328 24.724 1.32404 19.4562 1.34775 13.0048C1.37145 6.55331 6.63927 1.32406 13.0907 1.34777ZM13.0955 0.047773C5.91648 0.0213911 0.0741305 5.82053 0.047747 13C0.0213636 20.1795 5.82094 26.0214 13 26.0478C20.179 26.0741 26.0213 20.275 26.0477 13.0955C26.0741 5.91607 20.2745 0.0741548 13.0955 0.047773Z" fill="#C5C5C5"/>
<path d="M19.981 11.661L14.804 8.22684C13.6126 7.43681 12.6331 7.96015 12.6278 9.39015L12.6238 10.4973L9.17067 8.20657C7.97929 7.41611 6.99975 7.93945 6.9945 9.36945L6.96763 16.6819C6.96237 18.1119 7.93933 18.6446 9.13907 17.866L12.6049 15.6158L12.601 16.7026C12.5957 18.1326 13.5727 18.6653 14.7724 17.8867L19.9671 14.5145C21.1664 13.7354 21.1724 12.4515 19.981 11.661ZM19.0511 13.5586L14.6269 16.4306C14.2273 16.6904 13.9017 16.5124 13.9034 16.0362L13.9106 14.0827C13.9124 13.6061 13.5867 13.4285 13.1866 13.6879L8.99405 16.4103C8.59399 16.6697 8.26834 16.4917 8.27009 16.0155L8.29201 10.0524C8.29376 9.57573 8.62027 9.40143 9.01754 9.66506L13.1926 12.4338C13.5898 12.697 13.9163 12.5227 13.9181 12.0465L13.9253 10.0731C13.9271 9.59643 14.2536 9.42213 14.6509 9.68576L19.0559 12.6075C19.4531 12.8707 19.4511 13.2988 19.0511 13.5586Z" fill="#C5C5C5"/>
</svg>
