<svg width="17" height="13" viewBox="0 0 17 13" fill="none" xmlns="http://www.w3.org/2000/svg">
<path d="M1.03123 1.58176L15.3722 1.43289C15.6953 1.42953 15.9542 1.11415 15.9502 0.728899C15.9463 0.343651 15.6808 0.033709 15.3577 0.0370633L1.01674 0.18594C0.69363 0.189294 0.434642 0.504681 0.438642 0.889929C0.442641 1.27518 0.708121 1.58512 1.03123 1.58176Z" fill="#E5E5E5"/>
<path d="M1.08555 6.81614L15.4265 6.66726C15.7496 6.66391 16.0086 6.34852 16.0046 5.96327C16.0006 5.57803 15.7351 5.26808 15.412 5.27144L1.07106 5.42032C0.747952 5.42367 0.488964 5.73906 0.492963 6.1243C0.496962 6.50955 0.762442 6.81949 1.08555 6.81614Z" fill="#E5E5E5"/>
<path d="M1.13993 12.0505L15.4809 11.9016C15.804 11.8982 16.063 11.5828 16.059 11.1976C16.055 10.8123 15.7895 10.5024 15.4664 10.5058L1.12544 10.6546C0.802334 10.658 0.543346 10.9734 0.547345 11.3586C0.551345 11.7439 0.816824 12.0538 1.13993 12.0505Z" fill="#E5E5E5"/>
</svg>
