<svg width="31" height="31" viewBox="0 0 31 31" fill="none" xmlns="http://www.w3.org/2000/svg">
<path d="M15.4447 1.60533C23.1063 1.57482 29.3642 7.78305 29.3947 15.4447C29.4252 23.1063 23.217 29.3642 15.5553 29.3947C7.8937 29.4252 1.63584 23.217 1.60533 15.5553C1.57482 7.89371 7.78305 1.63584 15.4447 1.60533ZM15.4385 0.0614797C6.91286 0.0954286 0.0275247 7.0353 0.0614756 15.5615C0.0954265 24.0877 7.03581 30.9725 15.5615 30.9385C24.0871 30.9046 30.9725 23.9647 30.9385 15.4385C30.9046 6.91235 23.9642 0.0275308 15.4385 0.0614797Z" fill="#C5C5C5"/>
<path d="M21.662 13.8004L13.42 8.42293C11.9975 7.49506 10.839 8.12597 10.8458 9.82421L10.8911 21.2101C10.8979 22.9084 12.0629 23.5321 13.4805 22.5965L21.6719 17.1891C23.0891 16.2525 23.0846 14.7282 21.662 13.8004ZM20.5754 16.0582L13.2946 20.8645C12.8223 21.1767 12.434 20.9688 12.4318 20.4027L12.3928 10.6188C12.3905 10.0527 12.7767 9.84277 13.2509 10.1522L20.5724 14.9286C21.0466 15.2376 21.0481 15.746 20.5754 16.0582Z" fill="#C5C5C5"/>
</svg>
