<svg width="31" height="31" viewBox="0 0 31 31" fill="none" xmlns="http://www.w3.org/2000/svg">
<path d="M15.5553 29.3947C7.8937 29.4252 1.63584 23.2169 1.60533 15.5553C1.57482 7.8937 7.78305 1.63583 15.4447 1.60533C23.1063 1.57482 29.3642 7.78304 29.3947 15.4447C29.4252 23.1063 23.217 29.3642 15.5553 29.3947ZM15.5615 30.9385C24.0871 30.9046 30.9725 23.9647 30.9385 15.4385C30.9046 6.91234 23.9642 0.0275251 15.4385 0.061474C6.91286 0.0954228 0.0275271 7.03529 0.0614781 15.5615C0.095429 24.0877 7.03581 30.9725 15.5615 30.9385Z" fill="#C5C5C5"/>
<path d="M9.33796 17.1996L17.58 22.5771C19.0025 23.5049 20.161 22.874 20.1542 21.1758L20.1089 9.78988C20.1021 8.09164 18.9371 7.46792 17.5194 8.40349L9.32807 13.8109C7.91092 14.7475 7.91544 16.2718 9.33796 17.1996ZM10.4246 14.9418L17.7054 10.1355C18.1776 9.8233 18.566 10.0312 18.5682 10.5973L18.6072 20.3812C18.6095 20.9473 18.2233 21.1572 17.7491 20.8478L10.4276 16.0714C9.95339 15.7624 9.95188 15.254 10.4246 14.9418Z" fill="#C5C5C5"/>
</svg>
