<svg width="15" height="15" viewBox="0 0 15 15" fill="none" xmlns="http://www.w3.org/2000/svg">
<path d="M14.7121 5.50531C14.3676 4.2609 13.6992 3.11794 12.7791 2.19996C11.3571 0.781317 9.46634 0 7.45528 0C5.44421 0 3.55352 0.781317 2.13147 2.20002L1.93734 2.3937V0.585673C1.93734 0.262206 1.67451 0 1.35028 0C1.02605 0 0.763229 0.262206 0.763229 0.585673V2.72789C0.765549 3.19192 0.946502 3.629 1.27282 3.95867C1.60027 4.28949 2.03709 4.47477 2.50284 4.48036L4.6084 4.48039C4.93263 4.48039 5.19545 4.21819 5.19545 3.89472C5.19545 3.57125 4.93263 3.30905 4.6084 3.30905H2.68024L2.96171 3.02824C4.16198 1.83079 5.75784 1.17132 7.45528 1.17132C9.15271 1.17132 10.7486 1.83079 11.9488 3.02824C12.7257 3.80323 13.2898 4.76762 13.5803 5.81712C13.6522 6.07678 13.8884 6.24705 14.1459 6.24702C14.1976 6.24702 14.2502 6.24013 14.3025 6.22572C14.615 6.13968 14.7984 5.81712 14.7121 5.50531Z" fill="#C5C5C5"/>
<path d="M6.159 13.7358C5.98489 13.698 5.81025 13.6522 5.64002 13.5997C5.33027 13.5043 5.00155 13.6773 4.90581 13.9864C4.81008 14.2955 4.98363 14.6234 5.29338 14.7189C5.49542 14.7812 5.7026 14.8355 5.90919 14.8804C5.9513 14.8895 5.99326 14.8939 6.03464 14.8939C6.30472 14.8939 6.54787 14.7068 6.60765 14.4327C6.67666 14.1166 6.4758 13.8046 6.159 13.7358Z" fill="#C5C5C5"/>
<path d="M3.73408 12.6337C3.59098 12.5275 3.45061 12.4138 3.31688 12.2959C3.07393 12.0817 2.70293 12.1045 2.48826 12.3468C2.27351 12.5892 2.29638 12.9594 2.53927 13.1735C2.69761 13.3132 2.86379 13.4477 3.0332 13.5735C3.13845 13.6516 3.26135 13.6893 3.38319 13.6893C3.56241 13.6893 3.73942 13.6077 3.85466 13.4532C4.04821 13.1937 3.99423 12.8268 3.73408 12.6337Z" fill="#C5C5C5"/>
<path d="M1.97451 10.634C1.88747 10.4785 1.80619 10.3175 1.73286 10.1555C1.59939 9.8607 1.25164 9.72965 0.956193 9.86278C0.660713 9.9959 0.52936 10.3428 0.662798 10.6376C0.74978 10.8297 0.846188 11.0206 0.94938 11.205C1.05683 11.3971 1.25661 11.5052 1.46249 11.5052C1.55934 11.5052 1.65754 11.4813 1.7481 11.4309C2.03119 11.2733 2.13256 10.9165 1.97451 10.634Z" fill="#C5C5C5"/>
<path d="M1.19651 8.09103C1.18165 7.91413 1.17411 7.73384 1.17411 7.55522C1.17411 7.23175 0.911283 6.96954 0.587054 6.96954C0.262825 6.96954 0 7.23175 0 7.55522C0 7.76636 0.00892723 7.97955 0.0265174 8.18885C0.0522126 8.49453 0.308812 8.72565 0.61084 8.72565C0.627314 8.72565 0.643877 8.72498 0.660556 8.72357C0.983669 8.69656 1.22362 8.41335 1.19651 8.09103Z" fill="#C5C5C5"/>
<path d="M12.0795 12.786C11.8878 12.5252 11.5204 12.4687 11.2589 12.66C11.1149 12.7653 10.9648 12.8657 10.8127 12.9583C10.5359 13.1269 10.4485 13.4873 10.6174 13.7634C10.7281 13.9442 10.9212 14.044 11.1191 14.044C11.2233 14.044 11.3289 14.0163 11.4244 13.9582C11.6047 13.8484 11.7826 13.7294 11.9532 13.6046C12.2147 13.4134 12.2712 13.0469 12.0795 12.786Z" fill="#C5C5C5"/>
<path d="M14.4661 7.60594C14.1427 7.57679 13.8576 7.814 13.8283 8.13615C13.8121 8.31349 13.7881 8.49214 13.757 8.66713C13.7005 8.98561 13.9134 9.28957 14.2327 9.34602C14.2673 9.35215 14.3018 9.35511 14.3358 9.35511C14.6151 9.35511 14.8627 9.15545 14.9131 8.8715C14.95 8.66411 14.9784 8.45241 14.9975 8.24232C15.0269 7.92018 14.789 7.63526 14.4661 7.60594Z" fill="#C5C5C5"/>
<path d="M13.8326 10.4526C13.5507 10.2929 13.1924 10.3916 13.0323 10.6728C12.9443 10.8274 12.8486 10.9802 12.7477 11.1271C12.5644 11.3938 12.6326 11.7584 12.9 11.9413C13.0015 12.0107 13.117 12.0439 13.2314 12.0439C13.4185 12.0439 13.6024 11.9548 13.7162 11.7893C13.8357 11.6153 13.9491 11.4342 14.0534 11.251C14.2134 10.9697 14.1146 10.6123 13.8326 10.4526Z" fill="#C5C5C5"/>
<path d="M9.52121 14.1978C9.45446 13.8812 9.1431 13.6786 8.82589 13.7451C8.65178 13.7817 8.47361 13.8112 8.29639 13.833C7.97457 13.8724 7.74575 14.1647 7.78534 14.4857C7.8219 14.7825 8.075 15 8.36725 15C8.39112 15 8.41532 14.9985 8.43961 14.9956C8.64975 14.9698 8.86101 14.9348 9.06754 14.8915C9.38484 14.8249 9.58793 14.5143 9.52121 14.1978Z" fill="#C5C5C5"/>
</svg>
