<svg width="15" height="15" viewBox="0 0 15 15" fill="none" xmlns="http://www.w3.org/2000/svg">
<path d="M14.5051 0.554357C14.4965 0.544542 14.4876 0.534962 14.4782 0.525616C14.4694 0.516856 14.4605 0.508448 14.4513 0.500362C14.1297 0.190694 13.6926 0 13.2118 0H9.1996C8.87601 0 8.61368 0.262266 8.61368 0.585851C8.61368 0.909435 8.87601 1.1717 9.1996 1.1717H13.0035L1.17273 13.001L1.17393 9.02337C1.17402 8.69984 0.911805 8.43746 0.588181 8.43734H0.588005C0.264527 8.43734 0.00217058 8.69952 0.00208268 9.02302L0.000793457 13.2119C0.000793457 14.1979 0.803012 15 1.78909 15H5.80133C6.12492 15 6.38725 14.7377 6.38725 14.4142C6.38725 14.0906 6.12492 13.8283 5.80133 13.8283H2.00249L13.8283 2.00397V5.91827C13.8283 6.24183 14.0906 6.50412 14.4142 6.50412C14.7378 6.50412 15.0001 6.24186 15.0001 5.91827V1.78811C15.0001 1.31016 14.8117 0.87548 14.5051 0.554357Z" fill="#C5C5C5"/>
<path d="M6.85518 1.17286C7.17877 1.17286 7.4411 0.910567 7.4411 0.58701C7.4411 0.263454 7.17877 0.00115967 6.85518 0.00115967C6.53158 0.00115967 6.26926 0.263454 6.26926 0.58701C6.26926 0.910567 6.53158 1.17286 6.85518 1.17286Z" fill="#C5C5C5"/>
<path d="M4.51152 1.17286C4.83512 1.17286 5.09744 0.910567 5.09744 0.58701C5.09744 0.263454 4.83512 0.00115967 4.51152 0.00115967C4.18792 0.00115967 3.9256 0.263454 3.9256 0.58701C3.9256 0.910567 4.18792 1.17286 4.51152 1.17286Z" fill="#C5C5C5"/>
<path d="M2.16789 1.17286C2.49149 1.17286 2.75381 0.910567 2.75381 0.58701C2.75381 0.263454 2.49149 0.00115967 2.16789 0.00115967C1.8443 0.00115967 1.58197 0.263454 1.58197 0.58701C1.58197 0.910567 1.8443 1.17286 2.16789 1.17286Z" fill="#C5C5C5"/>
<path d="M0.585922 7.26557C0.909518 7.26557 1.17184 7.00328 1.17184 6.67972C1.17184 6.35617 0.909518 6.09387 0.585922 6.09387C0.262326 6.09387 0 6.35617 0 6.67972C0 7.00328 0.262326 7.26557 0.585922 7.26557Z" fill="#C5C5C5"/>
<path d="M0.585922 4.92225C0.909518 4.92225 1.17184 4.65996 1.17184 4.3364C1.17184 4.01284 0.909518 3.75055 0.585922 3.75055C0.262326 3.75055 0 4.01284 0 4.3364C0 4.65996 0.262326 4.92225 0.585922 4.92225Z" fill="#C5C5C5"/>
<path d="M0.585922 2.57887C0.909518 2.57887 1.17184 2.31657 1.17184 1.99302C1.17184 1.66946 0.909518 1.40717 0.585922 1.40717C0.262326 1.40717 0 1.66946 0 1.99302C0 2.31657 0.262326 2.57887 0.585922 2.57887Z" fill="#C5C5C5"/>
<path d="M14.4134 8.73017C14.737 8.73017 14.9993 8.46788 14.9993 8.14432C14.9993 7.82077 14.737 7.55847 14.4134 7.55847C14.0898 7.55847 13.8275 7.82077 13.8275 8.14432C13.8275 8.46788 14.0898 8.73017 14.4134 8.73017Z" fill="#C5C5C5"/>
<path d="M14.4134 11.0736C14.737 11.0736 14.9993 10.8113 14.9993 10.4877C14.9993 10.1641 14.737 9.90186 14.4134 9.90186C14.0898 9.90186 13.8275 10.1641 13.8275 10.4877C13.8275 10.8113 14.0898 11.0736 14.4134 11.0736Z" fill="#C5C5C5"/>
<path d="M14.4134 13.4169C14.737 13.4169 14.9993 13.1546 14.9993 12.831C14.9993 12.5075 14.737 12.2452 14.4134 12.2452C14.0898 12.2452 13.8275 12.5075 13.8275 12.831C13.8275 13.1546 14.0898 13.4169 14.4134 13.4169Z" fill="#C5C5C5"/>
<path d="M8.31993 14.9987C8.64353 14.9987 8.90585 14.7364 8.90585 14.4128C8.90585 14.0893 8.64353 13.827 8.31993 13.827C7.99634 13.827 7.73401 14.0893 7.73401 14.4128C7.73401 14.7364 7.99634 14.9987 8.31993 14.9987Z" fill="#C5C5C5"/>
<path d="M10.6636 14.9987C10.9872 14.9987 11.2495 14.7364 11.2495 14.4128C11.2495 14.0893 10.9872 13.827 10.6636 13.827C10.34 13.827 10.0777 14.0893 10.0777 14.4128C10.0777 14.7364 10.34 14.9987 10.6636 14.9987Z" fill="#C5C5C5"/>
<path d="M13.0072 14.9987C13.3308 14.9987 13.5931 14.7364 13.5931 14.4128C13.5931 14.0893 13.3308 13.827 13.0072 13.827C12.6836 13.827 12.4213 14.0893 12.4213 14.4128C12.4213 14.7364 12.6836 14.9987 13.0072 14.9987Z" fill="#C5C5C5"/>
</svg>
