<svg width="18" height="15" viewBox="0 0 18 15" fill="none" xmlns="http://www.w3.org/2000/svg">
<path d="M17.9117 0.271297C17.8139 0.101838 17.6492 0 17.4726 0H10.8206C10.608 0 10.4163 0.147122 10.3342 0.373176L9.49218 2.69132V0.608108C9.49218 0.27227 9.25608 0 8.96484 0H2.32031C2.02908 0 1.79297 0.27227 1.79297 0.608108V5.47297C1.79297 5.80881 2.02908 6.08108 2.32031 6.08108C2.61155 6.08108 2.84766 5.80881 2.84766 5.47297V1.21622H8.4375V5.595L5.46314 13.7838H2.84766V9.52703C2.84766 9.19119 2.61155 8.91892 2.32031 8.91892C2.02908 8.91892 1.79297 9.19119 1.79297 9.52703V14.3919C1.79297 14.7277 2.02908 15 2.32031 15C2.54858 15 12.3241 15 12.4661 15C12.6786 15 12.8704 14.8529 12.9525 14.6268L17.959 0.84304C18.0272 0.655297 18.0095 0.440716 17.9117 0.271297ZM12.1152 13.7838H6.6066L11.1714 1.21622H16.68L12.1152 13.7838Z" fill="#C5C5C5"/>
<path d="M6.15343 7.07175L5.21884 5.98502C5.01374 5.74656 4.67982 5.74494 4.47307 5.98145C4.26628 6.21792 4.26487 6.60298 4.46998 6.84144L4.51332 6.89183H0.527344C0.236109 6.89183 0 7.1641 0 7.49994C0 7.83578 0.236109 8.10805 0.527344 8.10805H4.51329L4.46998 8.15848C4.26487 8.39694 4.26628 8.78199 4.47307 9.01846C4.67986 9.25494 5.01374 9.2534 5.21884 9.0149L6.15343 7.92817C6.35734 7.69109 6.35734 7.30883 6.15343 7.07175Z" fill="#C5C5C5"/>
</svg>
