<svg width="23" height="23" viewBox="0 0 23 23" fill="none" xmlns="http://www.w3.org/2000/svg">
<path d="M11.5 21.85C5.79293 21.85 1.15 17.2071 1.15 11.5C1.15 5.79293 5.79293 1.15 11.5 1.15C17.2071 1.15 21.85 5.79293 21.85 11.5C21.85 17.2071 17.2071 21.85 11.5 21.85ZM11.5 23C17.8507 23 23 17.8511 23 11.5C23 5.14893 17.8507 -1.93715e-07 11.5 -1.93715e-07C5.14932 -1.93715e-07 -1.93715e-07 5.14893 -1.93715e-07 11.5C-1.93715e-07 17.8511 5.14932 23 11.5 23Z" fill="#C5C5C5"/>
<path d="M9.00834 17.0342C10.0625 17.0342 10.925 16.1717 10.925 15.1175V13.9227L13.9871 15.9378C15.0435 16.6328 15.9083 16.1671 15.9083 14.9021L15.9083 8.43333C15.9083 7.16833 15.0424 6.70028 13.9836 7.39296L10.925 9.39473V7.88248C10.925 6.82831 10.0625 5.96581 9.00834 5.96581C7.95417 5.96581 7.09167 6.82831 7.09167 7.88248L7.09167 15.1175C7.09167 16.1717 7.95417 17.0342 9.00834 17.0342ZM8.24167 12.9241C8.24167 12.5024 8.24167 11.9309 8.24167 11.6541C8.24167 11.3773 8.24167 10.8058 8.24167 10.3841V7.88209C8.24167 7.46043 8.58667 7.11543 9.00834 7.11543C9.43001 7.11543 9.77501 7.46043 9.77501 7.88209V9.38055C9.77501 9.80221 9.77501 10.4566 9.77501 10.8341C9.77501 11.2121 10.0637 11.3325 10.4167 11.1017L14.1166 8.67981C14.4697 8.44905 14.7583 8.60545 14.7583 9.02673V14.3022C14.7583 14.7238 14.4701 14.8791 14.1178 14.6472L10.4156 12.2115C10.0633 11.9799 9.77501 12.0995 9.77501 12.4779C9.77501 12.8566 9.77501 13.5113 9.77501 13.933V15.1179C9.77501 15.5396 9.43001 15.8846 9.00834 15.8846C8.58667 15.8846 8.24167 15.5396 8.24167 15.1179V12.9241Z" fill="#C5C5C5"/>
</svg>
