<svg width="15" height="15" viewBox="0 0 15 15" fill="none" xmlns="http://www.w3.org/2000/svg">
<path d="M10.582 2.34129L8.77579 0.520137C8.4431 0.184717 8.00042 0 7.5293 0C7.05818 0 6.6155 0.184717 6.2828 0.520137L4.47656 2.34129C4.24869 2.57104 4.25019 2.94205 4.47996 3.16992C4.70977 3.39782 5.08075 3.39627 5.30859 3.16652L6.91406 1.54781V4.83398C6.91406 5.1576 7.17639 5.41992 7.5 5.41992C7.82361 5.41992 8.08594 5.1576 8.08594 4.83398V1.48875L9.75 3.16652C9.86458 3.28204 10.0153 3.33987 10.166 3.33984C10.3152 3.33984 10.4644 3.28324 10.5786 3.16992C10.8084 2.94205 10.8099 2.57104 10.582 2.34129Z" fill="#C5C5C5"/>
<path d="M10.5786 11.8301C10.3489 11.6022 9.97787 11.6037 9.75 11.8335L8.08593 13.5112V10.1074C8.08593 9.78381 7.82361 9.52148 7.5 9.52148C7.17638 9.52148 6.91406 9.78381 6.91406 10.1074V13.4522L5.30859 11.8335C5.08072 11.6038 4.70973 11.6022 4.47996 11.8301C4.25018 12.0579 4.24866 12.429 4.47656 12.6587L6.2828 14.4799C6.6155 14.8153 7.05817 15 7.52929 15C8.00042 15 8.44309 14.8153 8.77579 14.4799L10.582 12.6587C10.8099 12.429 10.8084 12.0579 10.5786 11.8301Z" fill="#C5C5C5"/>
<path d="M4.83398 6.94335H1.48872L3.16652 5.27929C3.3963 5.05142 3.39782 4.68043 3.16992 4.45065C2.94214 4.22094 2.57109 4.21936 2.34129 4.44726L0.520137 6.25353C0.184717 6.58619 0 7.02887 0 7.49999C0 7.97111 0.184717 8.41379 0.520137 8.74648L2.34129 10.5527C2.45555 10.666 2.60473 10.7226 2.75388 10.7226C2.90464 10.7226 3.05537 10.6648 3.16992 10.5493C3.39779 10.3196 3.3963 9.94856 3.16652 9.72069L1.54781 8.11522H4.83398C5.1576 8.11522 5.41992 7.8529 5.41992 7.52929C5.41992 7.20567 5.1576 6.94335 4.83398 6.94335Z" fill="#C5C5C5"/>
<path d="M14.4799 6.2535L12.6587 4.44726C12.4289 4.21938 12.0579 4.22091 11.8301 4.45065C11.6022 4.68043 11.6037 5.05142 11.8335 5.27929L13.5113 6.94335H10.1074C9.78381 6.94335 9.52148 7.20567 9.52148 7.52929C9.52148 7.8529 9.78381 8.11522 10.1074 8.11522H13.4522L11.8335 9.72069C11.6037 9.94856 11.6022 10.3196 11.8301 10.5493C11.9446 10.6648 12.0953 10.7226 12.2461 10.7226C12.3952 10.7226 12.5445 10.666 12.6587 10.5527L14.4799 8.74645C14.8153 8.41379 15 7.97111 15 7.49999C15 7.02887 14.8153 6.58619 14.4799 6.2535Z" fill="#C5C5C5"/>
</svg>
